<svg width="15" height="15" viewBox="0 0 15 15" fill="none" xmlns="http://www.w3.org/2000/svg">
<path d="M12.707 6.707C12.8944 6.51947 12.9998 6.26516 12.9998 6C12.9998 5.73484 12.8944 5.48053 12.707 5.293L8.20697 0.793C8.01944 0.605529 7.76513 0.500214 7.49997 0.500214C7.23481 0.500214 6.9805 0.605529 6.79297 0.793L2.29297 5.293C2.11081 5.4816 2.01002 5.7342 2.0123 5.9964C2.01457 6.2586 2.11974 6.50941 2.30515 6.69482C2.49056 6.88023 2.74137 6.9854 3.00357 6.98767C3.26577 6.98995 3.51837 6.88916 3.70697 6.707L6.49997 4L6.49997 13.5C6.49997 13.7652 6.60533 14.0196 6.79286 14.2071C6.9804 14.3946 7.23475 14.5 7.49997 14.5C7.76519 14.5 8.01954 14.3946 8.20708 14.2071C8.39461 14.0196 8.49997 13.7652 8.49997 13.5V4L11.293 6.707C11.4805 6.89447 11.7348 6.99979 12 6.99979C12.2651 6.99979 12.5194 6.89447 12.707 6.707Z" fill="white"/>
</svg>
